#!OML:ASF C:\Vicon Data\Big\jianyuan-12\jianyuan\Session 1\Capture.male.ASF
:FULLY-SPECIFIED
:DEGREES
56
root -8.544604 17.180801 -18.882696 5.469648 7.672844 1.888086
lowerback -11.009928 -1.148663 -5.698956 
upperback 2.163167 -0.702831 -0.419588 
thorax 8.583986 -0.619733 2.637212 
lowerneck -4.175507 -5.909135 -5.821204 
upperneck 7.473296 -8.352063 8.985264 
head 3.529281 -3.989081 3.276105 
rclavicle 0.000000 0.000000 
rhumerus -34.643379 -23.576520 -81.495761 
rradius 38.219408 
rwrist 29.954259 
rhand -18.799706 -5.224419 
rfingers 0.000000 
rthumb 7.498445 -35.071472 
lclavicle 0.000000 0.000000 
lhumerus -35.013316 30.921982 74.802001 
lradius 28.557333 
lwrist -49.709249 
lhand -9.119068 4.306456 
lfingers 0.000000 
lthumb 16.831817 33.596953 
rfemur -19.966268 1.613675 20.234818 
rtibia 32.695118 
rfoot -24.380963 -3.901895 
rtoes -0.617029 
lfemur -19.014943 6.791332 -18.902747 
ltibia 65.609845 
lfoot -9.534323 8.410749 
ltoes -23.128954 
57
root -8.549605 17.179107 -18.812085 5.493747 7.649594 1.954954
lowerback -10.943080 -1.063796 -5.762385 
upperback 2.160093 -0.582478 -0.460862 
thorax 8.531601 -0.562332 2.651626 
lowerneck -4.178023 -5.987883 -5.849405 
upperneck 7.535078 -8.473124 9.090915 
head 3.563224 -4.045337 3.304563 
rclavicle 0.000000 0.000000 
rhumerus -34.258158 -23.555260 -81.586567 
rradius 38.346244 
rwrist 29.940017 
rhand -18.674496 -5.216593 
rfingers 0.000000 
rthumb 7.619343 -35.059294 
lclavicle 0.000000 0.000000 
lhumerus -35.268991 31.144269 74.572043 
lradius 28.410640 
lwrist -49.775341 
lhand -9.178835 4.153524 
lfingers 0.000000 
lthumb 16.774281 33.448926 
rfemur -19.724202 1.518440 20.237509 
rtibia 32.743289 
rfoot -24.626088 -3.754117 
rtoes -0.872099 
lfemur -19.849161 6.796771 -19.102438 
ltibia 65.811950 
lfoot -10.095460 8.213850 
ltoes -23.695537 
58
root -8.552435 17.174065 -18.744448 5.573073 7.639405 2.044750
lowerback -10.890979 -1.019604 -5.818856 
upperback 2.127541 -0.517576 -0.503689 
thorax 8.460520 -0.530265 2.650151 
lowerneck -4.148519 -5.959240 -6.016672 
upperneck 7.559647 -8.441589 9.250565 
head 3.577010 -4.029051 3.382374 
rclavicle 0.000000 0.000000 
rhumerus -33.885411 -23.121982 -81.853671 
rradius 38.562759 
rwrist 29.540402 
rhand -18.614106 -5.358830 
rfingers 0.000000 
rthumb 7.677647 -35.199412 
lclavicle 0.000000 0.000000 
lhumerus -35.707986 31.661921 74.162935 
lradius 28.359565 
lwrist -50.061294 
lhand -8.910093 3.896488 
lfingers 0.000000 
lthumb 17.032953 33.169706 
rfemur -19.566432 1.400846 20.196700 
rtibia 32.794527 
rfoot -24.855762 -3.596035 
rtoes -0.963397 
lfemur -20.737133 6.732269 -19.344438 
ltibia 65.966485 
lfoot -10.679548 8.024490 
ltoes -23.495533 
59
root -8.560188 17.171589 -18.672756 5.549036 7.590777 2.009985
lowerback -10.832108 -0.902431 -5.755993 
upperback 2.161203 -0.367893 -0.571068 
thorax 8.447759 -0.453273 2.570067 
lowerneck -4.166290 -5.994949 -6.096767 
upperneck 7.598863 -8.509134 9.461603 
head 3.609548 -4.056461 3.454232 
rclavicle 0.000000 0.000000 
rhumerus -33.532751 -23.001099 -82.084847 
rradius 38.799037 
rwrist 29.282368 
rhand -18.604531 -5.482923 
rfingers 0.000000 
rthumb 7.686859 -35.323214 
lclavicle 0.000000 0.000000 
lhumerus -35.827528 31.539221 73.986474 
lradius 28.278940 
lwrist -49.932808 
lhand -8.734356 3.819612 
lfingers 0.000000 
lthumb 17.202110 33.078206 
rfemur -19.290748 1.368724 20.307614 
rtibia 32.850661 
rfoot -25.123655 -3.442579 
rtoes -1.033493 
lfemur -21.483411 6.710059 -19.414942 
ltibia 66.029261 
lfoot -11.248923 7.829887 
ltoes -23.852664 
60
root -8.567312 17.168171 -18.604043 5.529035 7.534143 2.033387
lowerback -10.682996 -0.786016 -5.827324 
upperback 2.124321 -0.214682 -0.573109 
thorax 8.308241 -0.378142 2.636433 
lowerneck -4.034963 -6.010269 -6.132207 
upperneck 7.558407 -8.530909 9.472441 
head 3.579176 -4.072078 3.466351 
rclavicle 0.000000 0.000000 
rhumerus -33.281135 -22.932247 -82.123020 
rradius 38.877728 
rwrist 29.528594 
rhand -18.787275 -5.391386 
rfingers 0.000000 
rthumb 7.510493 -35.238041 
lclavicle 0.000000 0.000000 
lhumerus -36.292478 31.767722 73.682657 
lradius 28.185901 
lwrist -50.643408 
lhand -9.094923 3.731531 
lfingers 0.000000 
lthumb 16.855067 33.019998 
rfemur -19.032972 1.367547 20.351226 
rtibia 32.923615 
rfoot -25.397727 -3.277698 
rtoes -0.942767 
lfemur -22.213071 6.674106 -19.561788 
ltibia 66.025342 
lfoot -11.851619 7.595084 
ltoes -24.234247 
61
root -8.571320 17.163721 -18.537732 5.564667 7.548250 2.097901
lowerback -10.608632 -0.718365 -5.805119 
upperback 2.130767 -0.127197 -0.650486 
thorax 8.263761 -0.331784 2.556990 
lowerneck -4.058059 -6.100589 -6.186716 
upperneck 7.618662 -8.657552 9.513335 
head 3.615426 -4.133078 3.478295 
rclavicle 0.000000 0.000000 
rhumerus -32.830066 -22.725320 -82.387286 
rradius 39.097629 
rwrist 28.833658 
rhand -18.653482 -5.390818 
rfingers 0.000000 
rthumb 7.639600 -35.232839 
lclavicle 0.000000 0.000000 
lhumerus -36.576651 31.874580 73.441268 
lradius 28.136202 
lwrist -50.997097 
lhand -9.331457 3.851165 
lfingers 0.000000 
lthumb 16.627331 33.158947 
rfemur -18.859990 1.248310 20.338812 
rtibia 33.032492 
rfoot -25.479466 -3.151924 
rtoes -1.507110 
lfemur -23.019535 6.548455 -19.770230 
ltibia 65.969847 
lfoot -12.445393 7.413510 
ltoes -24.362914 
62
root -8.579585 17.157028 -18.477457 5.541163 7.540319 2.185761
lowerback -10.374155 -0.623210 -5.892551 
upperback 2.119494 -0.002016 -0.711930 
thorax 8.105226 -0.269435 2.562804 
lowerneck -4.066472 -6.177454 -6.128485 
upperneck 7.664645 -8.762267 9.444032 
head 3.633555 -4.184724 3.440602 
rclavicle 0.000000 0.000000 
rhumerus -32.509282 -22.568063 -82.551660 
rradius 39.280840 
rwrist 28.819549 
rhand -18.641944 -5.518520 
rfingers 0.000000 
rthumb 7.650729 -35.360128 
lclavicle 0.000000 0.000000 
lhumerus -36.754803 31.653808 73.376772 
lradius 28.126468 
lwrist -50.663650 
lhand -9.284638 3.850763 
lfingers 0.000000 
lthumb 16.672413 33.154755 
rfemur -18.669313 1.386396 20.315066 
rtibia 33.161199 
rfoot -25.685902 -3.237726 
rtoes -1.742046 
lfemur -23.794166 6.448666 -19.983910 
ltibia 65.848286 
lfoot -12.921185 7.245424 
ltoes -24.636623 
63
root -8.586314 17.152885 -18.410032 5.525357 7.509584 2.114516
lowerback -10.261707 -0.525659 -5.804780 
upperback 2.126332 0.110664 -0.738347 
thorax 8.036975 -0.208140 2.504671 
lowerneck -4.104351 -6.205363 -5.975974 
upperneck 7.698692 -8.799592 9.320162 
head 3.640962 -4.201869 3.374726 
rclavicle 0.000000 0.000000 
rhumerus -32.178970 -22.227036 -82.820163 
rradius 39.613851 
rwrist 28.061671 
rhand -18.404038 -5.448014 
rfingers 0.000000 
rthumb 7.880341 -35.281120 
lclavicle 0.000000 0.000000 
lhumerus -37.104175 32.023165 72.996380 
lradius 28.066503 
lwrist -51.089167 
lhand -9.192601 3.592189 
lfingers 0.000000 
lthumb 16.761070 32.888730 
rfemur -18.465652 1.478249 20.465516 
rtibia 33.288969 
rfoot -26.004465 -3.235931 
rtoes -1.767884 
lfemur -24.516805 6.397231 -20.019578 
ltibia 65.652781 
lfoot -13.475540 7.044851 
ltoes -24.925368 
64
root -8.588823 17.149483 -18.340387 5.517631 7.455755 2.250098
lowerback -10.174780 -0.419843 -5.915213 
upperback 2.156925 0.266464 -0.821976 
thorax 8.006806 -0.135779 2.503836 
lowerneck -4.073832 -6.303042 -5.820299 
upperneck 7.616731 -8.926660 9.216580 
head 3.609819 -4.266085 3.312506 
rclavicle 0.000000 0.000000 
rhumerus -31.841355 -22.141875 -82.969771 
rradius 39.771523 
rwrist 28.166325 
rhand -18.650976 -5.581003 
rfingers 0.000000 
rthumb 7.642067 -35.422914 
lclavicle 0.000000 0.000000 
lhumerus -36.994489 31.236720 73.483228 
lradius 28.430424 
lwrist -49.001966 
lhand -8.446460 4.441293 
lfingers 0.000000 
lthumb 17.479192 33.675400 
rfemur -18.213755 1.481919 20.371749 
rtibia 33.381258 
rfoot -26.264843 -3.157685 
rtoes -1.810429 
lfemur -25.145493 6.230611 -20.287159 
ltibia 65.349946 
lfoot -14.108515 6.819442 
ltoes -24.148131 
65
root -8.593105 17.142534 -18.272964 5.513279 7.427478 2.232726
lowerback -10.093123 -0.315562 -5.837107 
upperback 2.178266 0.395713 -0.903787 
thorax 7.971716 -0.066866 2.394251 
lowerneck -4.083453 -6.343352 -5.674686 
upperneck 7.581507 -8.985594 9.185556 
head 3.597603 -4.292866 3.276420 
rclavicle 0.000000 0.000000 
rhumerus -31.466920 -22.046918 -83.236357 
rradius 39.977326 
rwrist 27.866266 
rhand -18.733956 -5.628534 
rfingers 0.000000 
rthumb 7.561971 -35.473354 
lclavicle 0.000000 0.000000 
lhumerus -37.211647 31.220117 73.271362 
lradius 28.473918 
lwrist -48.813554 
lhand -8.323544 4.445020 
lfingers 0.000000 
lthumb 17.597495 33.668610 
rfemur -17.997522 1.472648 20.465097 
rtibia 33.478740 
rfoot -26.443512 -3.139222 
rtoes -2.264060 
lfemur -25.816788 6.086555 -20.386511 
ltibia 64.990251 
lfoot -14.411039 6.621479 
ltoes -23.346321 
66
root -8.595225 17.137467 -18.206856 5.506431 7.383996 2.340829
lowerback -9.951661 -0.209543 -5.876099 
upperback 2.183933 0.538343 -1.008011 
thorax 7.884568 0.005062 2.328215 
lowerneck -4.056555 -6.388347 -5.646073 
upperneck 7.563437 -9.055414 9.250577 
head 3.594827 -4.325571 3.288323 
rclavicle 0.000000 0.000000 
rhumerus -31.130492 -21.863925 -83.458615 
rradius 40.236731 
rwrist 27.292256 
rhand -18.846580 -5.703279 
rfingers 0.000000 
rthumb 7.453213 -35.551999 
lclavicle 0.000000 0.000000 
lhumerus -37.447673 31.111527 73.090276 
lradius 28.474143 
lwrist -48.784199 
lhand -8.311213 4.334266 
lfingers 0.000000 
lthumb 17.609383 33.556812 
rfemur -17.762163 1.438835 20.407055 
rtibia 33.560996 
rfoot -26.529184 -3.072981 
rtoes -2.714192 
lfemur -26.440428 5.906714 -20.633041 
ltibia 64.541522 
lfoot -14.808451 6.519133 
ltoes -23.574132 
67
root -8.596671 17.131422 -18.138579 5.516609 7.362703 2.380249
lowerback -9.858114 -0.112165 -5.890778 
upperback 2.184235 0.666820 -1.067236 
thorax 7.820563 0.069836 2.293961 
lowerneck -4.004366 -6.452664 -5.748401 
upperneck 7.515490 -9.157781 9.481781 
head 3.595071 -4.373346 3.370513 
rclavicle 0.000000 0.000000 
rhumerus -30.800915 -21.800092 -83.601576 
rradius 40.397992 
rwrist 27.286514 
rhand -18.906374 -5.707142 
rfingers 0.000000 
rthumb 7.395498 -35.557844 
lclavicle 0.000000 0.000000 
lhumerus -37.699931 31.176457 72.743212 
lradius 28.293283 
lwrist -49.407766 
lhand -8.452535 3.816977 
lfingers 0.000000 
lthumb 17.473397 33.051682 
rfemur -17.528526 1.378934 20.425973 
rtibia 33.612565 
rfoot -26.738196 -3.013018 
rtoes -2.934536 
lfemur -27.064750 5.732204 -20.796013 
ltibia 64.027106 
lfoot -15.260252 6.434631 
ltoes -23.510491 
68
root -8.599562 17.124286 -18.067359 5.357632 7.432432 2.375293
lowerback -9.631033 -0.060808 -5.853364 
upperback 2.252465 0.718582 -1.101455 
thorax 7.759251 0.097973 2.243109 
lowerneck -4.003038 -6.493894 -5.734121 
upperneck 7.472487 -9.208104 9.461228 
head 3.584281 -4.399071 3.359467 
rclavicle 0.000000 0.000000 
rhumerus -30.420699 -21.482706 -83.819840 
rradius 40.648235 
rwrist 26.735746 
rhand -18.771778 -5.714126 
rfingers 0.000000 
rthumb 7.525486 -35.560239 
lclavicle 0.000000 0.000000 
lhumerus -38.077100 31.704798 72.256409 
lradius 28.190891 
lwrist -50.287773 
lhand -8.589231 3.564548 
lfingers 0.000000 
lthumb 17.341800 32.810853 
rfemur -17.053042 1.476489 20.513002 
rtibia 33.635958 
rfoot -27.139440 -3.130161 
rtoes -3.081199 
lfemur -27.453969 5.400133 -20.872752 
ltibia 63.441005 
lfoot -15.785139 6.368328 
ltoes -23.008860 
